<svg width="24" height="25" viewBox="0 0 24 25" fill="none" xmlns="http://www.w3.org/2000/svg">
<path fill-rule="evenodd" clip-rule="evenodd" d="M7 6.75435C7 6.20206 7.44772 5.75435 8 5.75435H21C21.5523 5.75435 22 6.20206 22 6.75435C22 7.30663 21.5523 7.75435 21 7.75435H8C7.44772 7.75435 7 7.30663 7 6.75435Z" fill="url(#paint0_linear_1302_47)"/>
<path fill-rule="evenodd" clip-rule="evenodd" d="M7 12.7543C7 12.2021 7.44772 11.7543 8 11.7543H21C21.5523 11.7543 22 12.2021 22 12.7543C22 13.3066 21.5523 13.7543 21 13.7543H8C7.44772 13.7543 7 13.3066 7 12.7543Z" fill="url(#paint1_linear_1302_47)"/>
<path fill-rule="evenodd" clip-rule="evenodd" d="M7 18.7543C7 18.2021 7.44772 17.7543 8 17.7543H21C21.5523 17.7543 22 18.2021 22 18.7543C22 19.3066 21.5523 19.7543 21 19.7543H8C7.44772 19.7543 7 19.3066 7 18.7543Z" fill="url(#paint2_linear_1302_47)"/>
<path fill-rule="evenodd" clip-rule="evenodd" d="M5 6.75435C5 6.20206 4.55228 5.75435 4 5.75435H3C2.44772 5.75435 2 6.20206 2 6.75435C2 7.30663 2.44772 7.75435 3 7.75435H4C4.55228 7.75435 5 7.30663 5 6.75435Z" fill="url(#paint3_linear_1302_47)"/>
<path fill-rule="evenodd" clip-rule="evenodd" d="M5 12.7543C5 12.2021 4.55228 11.7543 4 11.7543H3C2.44772 11.7543 2 12.2021 2 12.7543C2 13.3066 2.44772 13.7543 3 13.7543H4C4.55228 13.7543 5 13.3066 5 12.7543Z" fill="url(#paint4_linear_1302_47)"/>
<path fill-rule="evenodd" clip-rule="evenodd" d="M5 18.7543C5 18.2021 4.55228 17.7543 4 17.7543H3C2.44772 17.7543 2 18.2021 2 18.7543C2 19.3066 2.44772 19.7543 3 19.7543H4C4.55228 19.7543 5 19.3066 5 18.7543Z" fill="url(#paint5_linear_1302_47)"/>
<defs>
<linearGradient id="paint0_linear_1302_47" x1="15.1647" y1="5.75414" x2="15.0363" y2="8.17963" gradientUnits="userSpaceOnUse">
<stop stop-color="#B380FD"/>
<stop offset="0.75" stop-color="#6347F5"/>
</linearGradient>
<linearGradient id="paint1_linear_1302_47" x1="15.1647" y1="11.7541" x2="15.0363" y2="14.1796" gradientUnits="userSpaceOnUse">
<stop stop-color="#B380FD"/>
<stop offset="0.75" stop-color="#6347F5"/>
</linearGradient>
<linearGradient id="paint2_linear_1302_47" x1="15.1647" y1="17.7541" x2="15.0363" y2="20.1796" gradientUnits="userSpaceOnUse">
<stop stop-color="#B380FD"/>
<stop offset="0.75" stop-color="#6347F5"/>
</linearGradient>
<linearGradient id="paint3_linear_1302_47" x1="3.36706" y1="5.75414" x2="3.96879" y2="8.02713" gradientUnits="userSpaceOnUse">
<stop stop-color="#B380FD"/>
<stop offset="0.75" stop-color="#6347F5"/>
</linearGradient>
<linearGradient id="paint4_linear_1302_47" x1="3.36706" y1="11.7541" x2="3.96879" y2="14.0271" gradientUnits="userSpaceOnUse">
<stop stop-color="#B380FD"/>
<stop offset="0.75" stop-color="#6347F5"/>
</linearGradient>
<linearGradient id="paint5_linear_1302_47" x1="3.36706" y1="17.7541" x2="3.96879" y2="20.0271" gradientUnits="userSpaceOnUse">
<stop stop-color="#B380FD"/>
<stop offset="0.75" stop-color="#6347F5"/>
</linearGradient>
</defs>
</svg>
