<svg width="24" height="25" viewBox="0 0 24 25" fill="none" xmlns="http://www.w3.org/2000/svg">
<path fill-rule="evenodd" clip-rule="evenodd" d="M2 11.2543C2 6.55991 5.80558 2.75433 10.5 2.75433C15.1944 2.75433 19 6.55991 19 11.2543C19 15.9488 15.1944 19.7543 10.5 19.7543C5.80558 19.7543 2 15.9488 2 11.2543ZM10.5 4.75433C6.91015 4.75433 4 7.66448 4 11.2543C4 14.8442 6.91015 17.7543 10.5 17.7543C14.0899 17.7543 17 14.8442 17 11.2543C17 7.66448 14.0899 4.75433 10.5 4.75433Z" fill="white"/>
<path fill-rule="evenodd" clip-rule="evenodd" d="M15.0929 15.8472C15.4834 15.4567 16.1166 15.4567 16.5071 15.8472L21.7071 21.0472C22.0976 21.4377 22.0976 22.0709 21.7071 22.4614C21.3166 22.852 20.6834 22.852 20.2929 22.4614L15.0929 17.2614C14.7024 16.8709 14.7024 16.2377 15.0929 15.8472Z" fill="white"/>
</svg>
